# xmcd
#
# Track frame offsets: 
#        150
#        25709
#        43526
#        61195
#        80038
#        100251
#        124940
#        153563
#        173311
#        194093
#        223029
#        248127
#        269677
#        296284
#        316747
#        333719
#
# Disc length: 4704 seconds
#
# Revision: 1
# Processed by: cddbd v1.5.2PL0 Copyright (c) Steve Scherf et al.
# Submitted via: ExactAudioCopyFreeDBPlugin 1.0
#
DISCID=e6125e10
DTITLE=Eric Clapton - The Essential
DYEAR=2013
DGENRE=Blues
TTITLE0=Autumn Leaves
TTITLE1=Before You Accuse Me
TTITLE2=Change the World
TTITLE3=Come Rain or Come Shine (with B.B.King)
TTITLE4=Got You on My Mind
TTITLE5=How Deep Is The Ocean
TTITLE6=It's Probably Me
TTITLE7=Knockin' On Heaven's Door
TTITLE8=Layla
TTITLE9=Old Love
TTITLE10=Running On Faith
TTITLE11=Second Nature
TTITLE12=Still Got the Blues
TTITLE13=Tears in Heaven
TTITLE14=The Folks Who Live On the Hill
TTITLE15=Travelin' Light
EXTD=
EXTT0=
EXTT1=
EXTT2=
EXTT3=
EXTT4=
EXTT5=
EXTT6=
EXTT7=
EXTT8=
EXTT9=
EXTT10=
EXTT11=
EXTT12=
EXTT13=
EXTT14=
EXTT15=
PLAYORDER=
